<svg xmlns="http://www.w3.org/2000/svg" viewBox="0 0 64 64">
  <defs>
    <radialGradient id="catBg" cx="50%" cy="50%">
      <stop offset="0%" stop-color="#2a2a2a"/>
      <stop offset="100%" stop-color="#0a0a0a"/>
    </radialGradient>
    <linearGradient id="catRed" x1="0%" y1="0%" x2="100%" y2="100%">
      <stop offset="0%" stop-color="#ff6b6b"/>
      <stop offset="100%" stop-color="#e50914"/>
    </linearGradient>
  </defs>

  <!-- Background tròn -->
  <circle cx="32" cy="32" r="31" fill="url(#catBg)" stroke="#e50914" stroke-width="2"/>

  <!-- Tai trái -->
  <path d="M14 24 L18 8 L28 20 Z" fill="url(#catRed)"/>
  <path d="M18 21 L20 13 L24 20 Z" fill="#ff8a8a"/>

  <!-- Tai phải -->
  <path d="M50 24 L46 8 L36 20 Z" fill="url(#catRed)"/>
  <path d="M46 21 L44 13 L40 20 Z" fill="#ff8a8a"/>

  <!-- Mặt mèo -->
  <ellipse cx="32" cy="38" rx="22" ry="20" fill="#1a1a1a" stroke="#e50914" stroke-width="1.5"/>

  <!-- Má hồng -->
  <circle cx="18" cy="42" r="3" fill="#e50914" opacity="0.4"/>
  <circle cx="46" cy="42" r="3" fill="#e50914" opacity="0.4"/>

  <!-- Mắt trái -->
  <ellipse cx="24" cy="34" rx="3.5" ry="4.5" fill="#fff"/>
  <ellipse cx="24" cy="35" rx="2" ry="3" fill="#0a0a0a"/>
  <circle cx="24.5" cy="34" r="0.8" fill="#fff"/>

  <!-- Mắt phải -->
  <ellipse cx="40" cy="34" rx="3.5" ry="4.5" fill="#fff"/>
  <ellipse cx="40" cy="35" rx="2" ry="3" fill="#0a0a0a"/>
  <circle cx="40.5" cy="34" r="0.8" fill="#fff"/>

  <!-- Mũi -->
  <path d="M30 42 L34 42 L32 45 Z" fill="#e50914"/>

  <!-- Miệng cười -->
  <path d="M32 45 Q28 48 26 46" stroke="#e50914" stroke-width="1.5" fill="none" stroke-linecap="round"/>
  <path d="M32 45 Q36 48 38 46" stroke="#e50914" stroke-width="1.5" fill="none" stroke-linecap="round"/>

  <!-- Râu trái -->
  <line x1="8" y1="36" x2="18" y2="38" stroke="#e50914" stroke-width="0.8" stroke-linecap="round"/>
  <line x1="8" y1="40" x2="18" y2="41" stroke="#e50914" stroke-width="0.8" stroke-linecap="round"/>
  <line x1="9" y1="44" x2="18" y2="44" stroke="#e50914" stroke-width="0.8" stroke-linecap="round"/>

  <!-- Râu phải -->
  <line x1="56" y1="36" x2="46" y2="38" stroke="#e50914" stroke-width="0.8" stroke-linecap="round"/>
  <line x1="56" y1="40" x2="46" y2="41" stroke="#e50914" stroke-width="0.8" stroke-linecap="round"/>
  <line x1="55" y1="44" x2="46" y2="44" stroke="#e50914" stroke-width="0.8" stroke-linecap="round"/>
</svg>
